<?xml version="1.0" encoding="UTF-8"?>
<svg id="Layer_1" xmlns="http://www.w3.org/2000/svg" version="1.1" viewBox="0 0 1024 1024">
  <!-- Generator: Adobe Illustrator 29.8.1, SVG Export Plug-In . SVG Version: 2.1.1 Build 2)  -->
  <defs>
    <style>
      .st0 {
        fill: #2e6982;
      }

      .st1 {
        fill: #fff;
      }

      .st2 {
        fill: #cc7736;
      }
    </style>
  </defs>
  <path class="st0" d="M129.16,77.52l760.59-.56c45.21,6,69.3,39.22,71.65,83.1,5.43,101.54-1.53,212.2-2.03,313.63-.42,84.99,4.96,175.55.95,260.14-1.71,36.05-33.21,59.35-66.74,64.12H128.6c-33.34-3.52-63.28-29.85-65.97-64.05l.1-583.23c3.28-36.95,29.93-66.61,66.43-73.15ZM905.29,133.12c-2.91-2.94-9.31-6.12-13.64-6.44l-753.5-.03c-16.2.51-29.14,13.49-29.64,29.64v564.22c.33,14.96,12.62,28.67,27.71,29.66,227-1.95,454.03,2.1,680.8.74,21.87-.13,54.24,1.66,74.62-.8,12.43-1.5,23.58-13.1,23.95-25.76V156.28c-.35-6.56-5.82-18.62-10.3-23.16Z"/>
  <path class="st0" d="M33.52,830.85l953.69-.47c28.12,4.73,33.67,22.77,31.61,48.84-2.87,36.17-33.66,61.64-67.94,67.82l-877.65-.03c-44-7.84-72.41-41.41-67.99-87.08,1.51-15.67,13.77-25.36,28.28-29.09ZM409.68,879.15c-17.51,1.33-17.14,28.94.03,29.68l204.73.06c16.18-2.11,16.03-27.76,1.15-29.67l-205.91-.07Z"/>
  <path class="st1" d="M905.29,133.12c4.49,4.53,9.95,16.6,10.3,23.16v568.09c-.37,12.66-11.52,24.27-23.95,25.76-20.38,2.45-52.75.66-74.62.8-226.77,1.36-453.81-2.7-680.8-.74-15.08-.98-27.37-14.7-27.71-29.66V156.3c.5-16.15,13.43-29.13,29.64-29.64l753.5.03c4.34.31,10.73,3.5,13.64,6.44ZM577.06,231.91h-40.15l-82.22,304.02h37.29l85.09-304.02ZM313.98,452.86l73.1,71.3c5.89,1.15,24.1-21.19,29.22-25.78l-102.98-105.17,102.98-105.17-27.59-29.34-134.72,132.97,59.98,61.18ZM650.56,273.11c-2.4-2.4-13.49-14.72-15.06-14.37l-29.76,30.49,105.03,103.98-105.03,102.59,29.64,30.52,132.75-133.12c-12.46-14.24-25.52-28.64-38.77-42.09-25.89-26.28-52.73-51.89-78.8-78.02ZM500.07,584.19c-51.11,8.71-49.91,107.98-3.82,115.73,80.8,13.59,79.7-128.66,3.82-115.73ZM414.53,585.64c-17.16-2.35-31.83,6.97-46.93,13.3l-.86,21.1,22.93-7.64v83.18c5.53,5.25,14.79-2.07,22.08,2.41l2.78-2.41v-109.95ZM640.15,585.64c-16.48-2.15-30.28,7.88-45.01,13.31l-.87,21.1,22.93-9.55v87.96c8.03-2.6,14.92-2.6,22.95,0v-112.81Z"/>
  <path class="st1" d="M409.68,879.15l205.91.07c14.88,1.91,15.02,27.56-1.15,29.67l-204.73-.06c-17.17-.73-17.54-28.35-.03-29.68Z"/>
  <path class="st2" d="M313.98,452.86l-59.98-61.18,134.72-132.97,27.59,29.34-102.98,105.17,102.98,105.17c-5.12,4.6-23.34,26.93-29.22,25.78l-73.1-71.3Z"/>
  <path class="st2" d="M650.56,273.11c26.06,26.12,52.91,51.74,78.8,78.02,13.25,13.45,26.31,27.85,38.77,42.09l-132.75,133.12-29.64-30.52,105.03-102.59-105.03-103.98,29.76-30.49c1.57-.35,12.67,11.96,15.06,14.37Z"/>
  <polygon class="st2" points="577.06 231.91 491.97 535.93 454.68 535.93 536.9 231.91 577.06 231.91"/>
  <path class="st2" d="M500.07,584.19c75.88-12.93,76.97,129.32-3.82,115.73-46.08-7.75-47.28-107.02,3.82-115.73ZM495.43,674.91c5.3,4.8,15.25,5.67,21.87,2.96,20.81-8.52,21.31-80.06-13-72.32-21.94,4.94-22.16,57.32-8.86,69.36Z"/>
  <path class="st2" d="M414.53,585.64v109.95l-2.78,2.41c-7.29-4.48-16.55,2.83-22.08-2.41v-83.18l-22.93,7.64.86-21.1c15.1-6.34,29.77-15.66,46.93-13.3Z"/>
  <path class="st2" d="M640.15,585.64v112.81c-8.02-2.6-14.91-2.6-22.95,0v-87.96l-22.93,9.55.87-21.1c14.74-5.42,28.53-15.46,45.01-13.31Z"/>
  <path class="st1" d="M495.43,674.91c-13.3-12.04-13.08-64.42,8.86-69.36,34.31-7.73,33.81,63.8,13,72.32-6.61,2.71-16.57,1.84-21.87-2.96Z"/>
</svg>